<svg xmlns="http://www.w3.org/2000/svg" viewBox="0 0 24 24">
  <path fill="#07C160" d="M8.423 2.766c-4.469 0-8.093 3.124-8.093 6.977 0 2.115 1.094 4.015 2.84 5.337l-.736 2.193 2.531-1.249c1.027.359 2.146.565 3.313.565.419 0 .829-.028 1.231-.077-.184-.572-.284-1.176-.284-1.802 0-3.626 3.248-6.566 7.255-6.566.425 0 .84.035 1.246.096-.46-3.136-3.791-5.474-7.903-5.474zm-2.89 3.655c.613 0 1.11.498 1.11 1.11 0 .614-.497 1.112-1.11 1.112a1.11 1.11 0 0 1-1.11-1.112c0-.612.497-1.11 1.11-1.11zm5.78 0c.613 0 1.111.498 1.111 1.11 0 .614-.498 1.112-1.111 1.112a1.111 1.111 0 0 1-1.11-1.112c0-.612.497-1.11 1.11-1.11zm7.39 5.836c-3.468 0-6.279 2.457-6.279 5.488 0 1.663.849 3.158 2.203 4.198l-.571 1.728 1.963-.984c.8.283 1.67.444 2.576.444 3.468 0 6.28-2.457 6.28-5.488 0-3.031-2.812-5.488-6.28-5.488zm-2.26 2.875c.477 0 .864.387.864.864 0 .477-.387.864-.864.864a.864.864 0 0 1-.864-.864c0-.477.387-.864.864-.864zm4.52 0c.477 0 .864.387.864.864 0 .477-.387.864-.864.864a.864.864 0 0 1-.864-.864c0-.477.387-.864.864-.864z"/>
</svg>
